<svg width="28" height="29" viewBox="0 0 28 29" fill="none" xmlns="http://www.w3.org/2000/svg">
<path d="M23.8062 4.10717C21.1875 1.45738 17.7 0 13.9937 0C6.34375 0 0.11875 6.28378 0.11875 14.006C0.11875 16.4728 0.75625 18.8829 1.96875 21.009L0 28.2644L7.35625 26.3149C9.38125 27.4316 11.6625 28.0183 13.9875 28.0183H13.9937C21.6375 28.0183 28 21.7346 28 14.0123C28 10.2711 26.425 6.75696 23.8062 4.10717ZM13.9937 25.6588C11.9187 25.6588 9.8875 25.0973 8.11875 24.0373L7.7 23.785L3.3375 24.9395L4.5 20.6431L4.225 20.2015C3.06875 18.3466 2.4625 16.2079 2.4625 14.006C2.4625 7.58975 7.6375 2.36588 14 2.36588C17.0812 2.36588 19.975 3.57721 22.15 5.77906C24.325 7.98091 25.6625 10.902 25.6562 14.0123C25.6562 20.4349 20.35 25.6588 13.9937 25.6588ZM20.3188 16.9397C19.975 16.7631 18.2688 15.9176 17.95 15.8041C17.6313 15.6842 17.4 15.6274 17.1688 15.9807C16.9375 16.334 16.275 17.1164 16.0688 17.3561C15.8688 17.5895 15.6625 17.6211 15.3188 17.4444C13.2812 16.4161 11.9438 15.6085 10.6 13.2805C10.2438 12.6622 10.9562 12.7064 11.6187 11.3688C11.7312 11.1354 11.675 10.9335 11.5875 10.7569C11.5 10.5802 10.8063 8.85786 10.5188 8.15756C10.2375 7.47618 9.95 7.57082 9.7375 7.5582C9.5375 7.54558 9.30625 7.54558 9.075 7.54558C8.84375 7.54558 8.46875 7.63391 8.15 7.9809C7.83125 8.33421 6.9375 9.17962 6.9375 10.902C6.9375 12.6243 8.18125 14.2899 8.35 14.5234C8.525 14.7568 10.7937 18.2898 14.275 19.8103C16.475 20.7693 17.3375 20.8513 18.4375 20.6873C19.1063 20.5863 20.4875 19.8419 20.775 19.0217C21.0625 18.2015 21.0625 17.5012 20.975 17.3561C20.8938 17.1984 20.6625 17.1101 20.3188 16.9397Z" fill="black"/>
</svg>
