<svg width="28" height="31" viewBox="0 0 28 31" fill="none" xmlns="http://www.w3.org/2000/svg">
<path d="M24.8424 2.93573C24.1101 2.24687 21.1461 0.0507689 14.5378 0.0213305C14.5378 0.0213305 6.74733 -0.455571 2.95302 3.10058C0.842499 5.25547 0.0986281 8.41716 0.017898 12.3325C-0.0628321 16.2478 -0.160862 23.5838 6.76463 25.5738H6.7704L6.76463 28.6119C6.76463 28.6119 6.7185 29.8424 7.51427 30.0897C8.4715 30.3958 9.03661 29.4597 9.95347 28.4529C10.4552 27.8995 11.1471 27.087 11.6719 26.4688C16.4119 26.875 20.0505 25.9448 20.4657 25.8093C21.4229 25.4914 26.8376 24.7849 27.7141 17.4488C28.6252 9.8773 27.2759 5.09651 24.8424 2.93573ZM25.644 16.8954C24.9001 23.0186 20.5118 23.4072 19.7045 23.6721C19.3585 23.784 16.1582 24.5965 12.139 24.3315C12.139 24.3315 9.1404 28.0231 8.20624 28.9828C7.90062 29.2949 7.56617 29.2654 7.57193 28.6472C7.57193 28.241 7.595 23.6015 7.595 23.6015C7.58923 23.6015 7.58923 23.6015 7.595 23.6015C1.72476 21.9411 2.07075 15.6943 2.13418 12.4267C2.19761 9.159 2.80309 6.48011 4.59068 4.67848C7.80259 1.70521 14.4167 2.14678 14.4167 2.14678C20.0044 2.17033 22.68 3.88953 23.3028 4.46653C25.3614 6.26815 26.4109 10.5779 25.644 16.8954ZM17.6286 12.1382C17.6517 12.6445 16.9078 12.6798 16.8847 12.1735C16.8213 10.8782 16.2274 10.2482 15.0049 10.1776C14.509 10.1481 14.5551 9.38862 15.0452 9.41806C16.6541 9.50638 17.5479 10.4484 17.6286 12.1382ZM18.7992 12.8035C18.8569 10.3071 17.3287 8.35239 14.4282 8.13455C13.9381 8.09922 13.99 7.33971 14.4801 7.37504C17.8247 7.62232 19.6065 9.9715 19.5431 12.8211C19.5373 13.3275 18.7877 13.3039 18.7992 12.8035ZM21.5094 13.5924C21.5152 14.0988 20.7655 14.1047 20.7655 13.5983C20.7309 8.79985 17.5998 6.18573 13.7997 6.15629C13.3095 6.1504 13.3095 5.39678 13.7997 5.39678C18.0496 5.42622 21.4691 8.42304 21.5094 13.5924ZM20.8578 19.3682V19.38C20.235 20.4987 19.0702 21.7351 17.8708 21.3406L17.8593 21.3229C16.6425 20.9756 13.7766 19.4683 11.966 17.9964C11.0318 17.2428 10.1784 16.3537 9.52099 15.5C8.92705 14.7405 8.32734 13.8397 7.74493 12.7564C6.51667 10.4896 6.24565 9.47694 6.24565 9.47694C5.8593 8.2523 7.06449 7.06299 8.16588 6.42712H8.17741C8.70792 6.14451 9.21537 6.23872 9.55559 6.65674C9.55559 6.65674 10.2706 7.52812 10.5762 7.95792C10.8646 8.35828 11.2509 9.00004 11.4527 9.35918C11.8045 10.0009 11.5854 10.6545 11.2394 10.9253L10.5474 11.4905C10.1957 11.779 10.2418 12.3148 10.2418 12.3148C10.2418 12.3148 11.2682 16.2772 15.1029 17.2781C15.1029 17.2781 15.6276 17.3252 15.9102 16.9661L16.4638 16.2595C16.729 15.9063 17.3691 15.6825 17.9977 16.0417C18.8453 16.5304 19.9236 17.2899 20.6387 17.9787C21.0423 18.3143 21.1346 18.8266 20.8578 19.3682Z" fill="black"/>
</svg>
